<svg xmlns="http://www.w3.org/2000/svg" xmlns:xlink="http://www.w3.org/1999/xlink" width="500" zoomAndPan="magnify" viewBox="0 0 375 374.999991" height="500" preserveAspectRatio="xMidYMid meet" version="1.0"><defs><g/><clipPath id="1eaed1fb37"><path d="M 84.589844 175 L 290.089844 175 L 290.089844 228.550781 L 84.589844 228.550781 Z M 84.589844 175 " clip-rule="nonzero"/></clipPath><clipPath id="e601e1a850"><path d="M 136 134.050781 L 186 134.050781 L 186 211 L 136 211 Z M 136 134.050781 " clip-rule="nonzero"/></clipPath><clipPath id="07136daae5"><path d="M 185 111 L 230 111 L 230 184 L 185 184 Z M 185 111 " clip-rule="nonzero"/></clipPath><clipPath id="326040e712"><path d="M 133.871094 72.652344 L 218.59375 56.484375 L 240.804688 172.882812 L 156.085938 189.050781 Z M 133.871094 72.652344 " clip-rule="nonzero"/></clipPath><clipPath id="648b2fb65b"><path d="M 133.871094 72.652344 L 218.59375 56.484375 L 240.804688 172.882812 L 156.085938 189.050781 Z M 133.871094 72.652344 " clip-rule="nonzero"/></clipPath><clipPath id="1b52fe4d37"><path d="M 221.378906 139.886719 C 217.503906 144.65625 212.335938 148.191406 207.167969 151.511719 C 201.996094 154.835938 196.679688 158.058594 192.316406 162.398438 C 192.285156 162.433594 192.25 162.460938 192.214844 162.496094 C 187.023438 167.699219 184.460938 174.96875 185.121094 182.285156 C 185.167969 182.78125 185.21875 183.277344 185.277344 183.777344 C 185.566406 177.640625 188.960938 171.984375 193.320312 167.644531 C 197.679688 163.308594 202.988281 160.089844 208.167969 156.761719 C 213.335938 153.4375 218.507812 149.914062 222.382812 145.132812 C 229.8125 135.988281 231.546875 123.0625 228.609375 111.625 C 229.882812 121.617188 227.695312 132.113281 221.378906 139.886719 Z M 221.378906 139.886719 " clip-rule="nonzero"/></clipPath><clipPath id="10e5e16032"><path d="M 172 78 L 224 78 L 224 175 L 172 175 Z M 172 78 " clip-rule="nonzero"/></clipPath><clipPath id="4c3a487a6a"><path d="M 133.871094 72.652344 L 218.59375 56.484375 L 240.804688 172.882812 L 156.085938 189.050781 Z M 133.871094 72.652344 " clip-rule="nonzero"/></clipPath><clipPath id="f672b30fb4"><path d="M 133.871094 72.652344 L 218.59375 56.484375 L 240.804688 172.882812 L 156.085938 189.050781 Z M 133.871094 72.652344 " clip-rule="nonzero"/></clipPath><clipPath id="a9270a4528"><path d="M 222.0625 106.398438 C 218.929688 95.519531 211.683594 86.183594 203.136719 78.765625 C 206.613281 84.785156 204.792969 92.675781 200.792969 98.367188 C 196.800781 104.054688 190.980469 108.136719 185.65625 112.597656 C 180.332031 117.0625 175.191406 122.332031 173.398438 129.042969 C 172.023438 134.191406 172.789062 139.726562 174.59375 144.742188 C 175.777344 148.054688 177.394531 151.179688 179.15625 154.238281 C 180.011719 150.015625 181.464844 145.917969 183.488281 142.109375 C 187.640625 134.292969 193.445312 127.433594 199.507812 120.976562 C 211.09375 108.632812 211.222656 104.445312 210.128906 97.128906 C 212.613281 102.761719 210.828125 109.46875 207.527344 114.660156 C 204.226562 119.855469 199.574219 124.039062 195.65625 128.785156 C 185.28125 141.363281 180.289062 158.234375 182.152344 174.429688 C 182.425781 168.738281 185.5625 163.484375 189.613281 159.46875 C 193.660156 155.441406 198.589844 152.453125 203.382812 149.375 C 208.183594 146.292969 212.980469 143.019531 216.566406 138.585938 C 223.71875 129.808594 225.183594 117.277344 222.0625 106.398438 Z M 222.0625 106.398438 " clip-rule="nonzero"/></clipPath><clipPath id="c8cdcc4947"><path d="M 142 68 L 189 68 L 189 139 L 142 139 Z M 142 68 " clip-rule="nonzero"/></clipPath><clipPath id="0ff1443748"><path d="M 133.871094 72.652344 L 218.59375 56.484375 L 240.804688 172.882812 L 156.085938 189.050781 Z M 133.871094 72.652344 " clip-rule="nonzero"/></clipPath><clipPath id="3e8df167ca"><path d="M 133.871094 72.652344 L 218.59375 56.484375 L 240.804688 172.882812 L 156.085938 189.050781 Z M 133.871094 72.652344 " clip-rule="nonzero"/></clipPath></defs><path fill="#ff997a" d="M 221.574219 173.136719 C 221.402344 173.25 221 173.523438 220.460938 173.886719 C 220.464844 173.882812 220.46875 173.882812 220.46875 173.878906 C 221.074219 173.472656 221.421875 173.238281 221.574219 173.136719 Z M 221.574219 173.136719 " fill-opacity="1" fill-rule="nonzero"/><path fill="#ff997a" d="M 237.710938 160.039062 L 243.128906 138.535156 C 242.269531 140.007812 241.3125 141.394531 240.351562 142.753906 C 236.753906 147.835938 232.792969 152.476562 228.652344 156.777344 C 225.589844 159.964844 222.414062 162.964844 219.15625 165.78125 C 215.464844 168.972656 211.585938 171.753906 207.96875 175.082031 C 198.625 183.679688 190.433594 195.5625 187.214844 210.140625 C 191.472656 201.515625 200.921875 187.089844 220.460938 173.886719 C 218.289062 175.351562 213.886719 178.328125 213.222656 178.777344 C 213.636719 178.496094 215.652344 177.132812 220.46875 173.878906 C 227.425781 169.179688 233.15625 164.367188 237.710938 160.039062 Z M 213.203125 178.789062 C 213.121094 178.84375 213.113281 178.851562 213.203125 178.789062 Z M 213.203125 178.789062 " fill-opacity="1" fill-rule="nonzero"/><path fill="#ff997a" d="M 221.628906 173.097656 C 221.671875 173.066406 221.671875 173.066406 221.628906 173.097656 Z M 221.628906 173.097656 " fill-opacity="1" fill-rule="nonzero"/><path fill="#ff997a" d="M 221.574219 173.136719 C 221.597656 173.121094 221.617188 173.105469 221.628906 173.097656 C 221.617188 173.105469 221.597656 173.121094 221.574219 173.136719 Z M 221.574219 173.136719 " fill-opacity="1" fill-rule="nonzero"/><path fill="#ff997a" d="M 230.550781 176.152344 C 230.027344 176.433594 229.234375 176.855469 228.640625 177.171875 C 228.644531 177.171875 228.644531 177.171875 228.644531 177.171875 C 229.554688 176.683594 230.164062 176.359375 230.550781 176.152344 Z M 230.550781 176.152344 " fill-opacity="1" fill-rule="nonzero"/><path fill="#ff997a" d="M 228.644531 177.171875 C 227.375 177.855469 227.8125 177.621094 228.644531 177.175781 C 214.4375 184.777344 200.699219 195.492188 189.960938 210.144531 C 189.695312 210.503906 189.433594 210.867188 189.171875 211.234375 C 195.507812 198.636719 204.925781 188.851562 214.6875 181.203125 C 218.507812 178.207031 222.503906 175.667969 226.371094 172.800781 C 229.8125 170.25 233.171875 167.507812 236.433594 164.566406 C 241.847656 159.679688 247.117188 154.269531 251.671875 148.011719 C 252.011719 147.539062 252.355469 147.066406 252.679688 146.570312 L 246.820312 165.757812 C 241.800781 169.402344 235.683594 173.40625 228.644531 177.171875 Z M 228.644531 177.171875 " fill-opacity="1" fill-rule="nonzero"/><path fill="#ff997a" d="M 231.0625 175.878906 C 231.101562 175.859375 231.101562 175.859375 231.0625 175.878906 Z M 231.0625 175.878906 " fill-opacity="1" fill-rule="nonzero"/><path fill="#ff997a" d="M 230.550781 176.152344 C 230.574219 176.140625 230.59375 176.128906 230.617188 176.117188 C 230.59375 176.128906 230.578125 176.140625 230.550781 176.152344 Z M 230.550781 176.152344 " fill-opacity="1" fill-rule="nonzero"/><path fill="#ff997a" d="M 230.617188 176.117188 C 230.863281 175.984375 231.007812 175.910156 231.0625 175.878906 C 231 175.914062 230.839844 176 230.617188 176.117188 Z M 230.617188 176.117188 " fill-opacity="1" fill-rule="nonzero"/><path fill="#ff997a" d="M 235.992188 184.035156 C 235.917969 184.054688 235.863281 184.070312 235.8125 184.082031 C 235.863281 184.066406 235.921875 184.054688 235.992188 184.035156 C 223.644531 187.035156 211.597656 192.804688 200.695312 201.203125 C 207.367188 194.34375 214.683594 188.597656 222.308594 183.824219 C 226.347656 181.292969 230.523438 179.191406 234.609375 176.796875 C 238.359375 174.597656 242.054688 172.222656 245.679688 169.679688 C 251.828125 165.367188 258 160.652344 263.507812 154.976562 L 257.203125 175.609375 C 251.691406 178.742188 244.558594 181.957031 235.992188 184.035156 Z M 235.992188 184.035156 " fill-opacity="1" fill-rule="nonzero"/><path fill="#ff997a" d="M 239.316406 183.226562 C 239.335938 183.222656 239.335938 183.222656 239.316406 183.226562 Z M 239.316406 183.226562 " fill-opacity="1" fill-rule="nonzero"/><path fill="#ff997a" d="M 236.019531 184.03125 C 236.035156 184.027344 236.050781 184.023438 236.0625 184.019531 C 236.050781 184.023438 236.035156 184.023438 236.019531 184.03125 Z M 236.019531 184.03125 " fill-opacity="1" fill-rule="nonzero"/><path fill="#ff997a" d="M 237.691406 183.625 C 237.769531 183.605469 237.851562 183.585938 237.925781 183.566406 C 237.855469 183.582031 237.769531 183.605469 237.691406 183.625 Z M 237.691406 183.625 " fill-opacity="1" fill-rule="nonzero"/><path fill="#ff997a" d="M 237.925781 183.566406 C 238.113281 183.519531 238.273438 183.480469 238.421875 183.445312 C 238.265625 183.484375 238.097656 183.523438 237.925781 183.566406 Z M 237.925781 183.566406 " fill-opacity="1" fill-rule="nonzero"/><path fill="#ff997a" d="M 236.019531 184.03125 C 236.011719 184.03125 236.003906 184.035156 235.992188 184.035156 C 236.003906 184.035156 236.011719 184.03125 236.019531 184.03125 Z M 236.019531 184.03125 " fill-opacity="1" fill-rule="nonzero"/><path fill="#ff997a" d="M 238.417969 183.445312 C 238.882812 183.335938 239.238281 183.246094 239.316406 183.226562 C 239.261719 183.242188 238.992188 183.308594 238.417969 183.445312 Z M 238.417969 183.445312 " fill-opacity="1" fill-rule="nonzero"/><path fill="#ff997a" d="M 236.0625 184.019531 C 236.152344 183.996094 236.230469 183.976562 236.316406 183.957031 C 236.222656 183.976562 236.140625 184 236.0625 184.019531 Z M 236.0625 184.019531 " fill-opacity="1" fill-rule="nonzero"/><path fill="#ff997a" d="M 236.316406 183.957031 C 236.375 183.945312 236.433594 183.929688 236.496094 183.914062 C 236.4375 183.929688 236.375 183.941406 236.316406 183.957031 Z M 236.316406 183.957031 " fill-opacity="1" fill-rule="nonzero"/><path fill="#ff997a" d="M 236.496094 183.914062 C 236.960938 183.800781 237.355469 183.703125 237.691406 183.621094 C 237.277344 183.722656 236.851562 183.828125 236.496094 183.914062 Z M 236.496094 183.914062 " fill-opacity="1" fill-rule="nonzero"/><path fill="#ff997a" d="M 246.667969 191.941406 C 246.710938 191.929688 246.714844 191.925781 246.667969 191.941406 Z M 246.667969 191.941406 " fill-opacity="1" fill-rule="nonzero"/><path fill="#ff997a" d="M 241.667969 193.148438 C 233.910156 195.082031 226.175781 197.183594 218.5 199.671875 C 210.835938 202.152344 203.167969 204.886719 195.761719 208.574219 C 202.625 202.398438 210.082031 197.367188 217.832031 193.515625 C 221.835938 191.53125 225.917969 189.859375 230.0625 188.511719 C 234.347656 187.125 238.703125 186.25 242.984375 184.828125 C 249.496094 182.660156 255.878906 179.671875 261.933594 175.765625 C 265.246094 173.632812 268.609375 171.277344 271.5625 168.320312 L 266.382812 185.277344 C 261.019531 187.566406 253.023438 190.402344 241.667969 193.148438 Z M 241.667969 193.148438 " fill-opacity="1" fill-rule="nonzero"/><path fill="#ff997a" d="M 241.703125 193.140625 C 245.097656 192.316406 246.4375 191.992188 246.667969 191.941406 C 246.226562 192.042969 242.125 193.039062 241.703125 193.140625 Z M 241.703125 193.140625 " fill-opacity="1" fill-rule="nonzero"/><path fill="#ff997a" d="M 241.667969 193.148438 C 241.667969 193.148438 241.679688 193.144531 241.703125 193.140625 C 241.6875 193.144531 241.679688 193.144531 241.667969 193.148438 Z M 241.667969 193.148438 " fill-opacity="1" fill-rule="nonzero"/><g clip-path="url(#1eaed1fb37)"><path fill="#9ad0c3" d="M 247.761719 208.039062 L 242.875 209.9375 L 194.511719 228.753906 L 185.867188 228.394531 L 185.671875 228.386719 L 177.027344 228.023438 L 130.40625 205.226562 L 125.695312 202.921875 L 90.792969 185.855469 L 84.605469 182.832031 L 89.035156 180.589844 L 99.117188 175.480469 C 100.363281 176.585938 101.742188 177.464844 103.09375 178.316406 C 106.222656 180.289062 109.464844 181.964844 112.734375 183.507812 C 119.789062 186.835938 127.019531 189.414062 134.285156 191.878906 C 142.800781 194.765625 151.253906 197.96875 159.574219 201.660156 C 163.675781 203.480469 167.746094 205.417969 171.75 207.574219 C 175.503906 209.59375 179.257812 211.769531 182.722656 214.542969 C 183.953125 215.527344 185.164062 216.59375 186.210938 217.894531 C 189.398438 214.542969 193.519531 212.570312 197.296875 210.738281 C 201.367188 208.761719 205.523438 207.070312 209.695312 205.527344 C 218.167969 202.394531 226.742188 199.796875 235.359375 197.53125 C 243.320312 195.4375 251.296875 193.617188 259.164062 190.902344 C 264.863281 188.933594 270.75 186.8125 276.039062 183.273438 C 276.207031 183.160156 276.378906 183.039062 276.542969 182.917969 L 286.164062 188.847656 L 290.390625 191.457031 L 283.972656 193.953125 Z M 247.761719 208.039062 " fill-opacity="1" fill-rule="nonzero"/></g><g clip-path="url(#e601e1a850)"><path fill="#ff997a" d="M 185.851562 210.085938 C 185.25 205.582031 184.144531 201.21875 182.660156 197.109375 C 179.988281 189.6875 176.101562 183.125 171.601562 177.484375 C 168.59375 173.714844 165.292969 170.496094 161.921875 167.316406 C 158.570312 164.15625 155.328125 160.796875 152.222656 157.234375 C 147.816406 152.1875 143.65625 146.734375 139.945312 140.792969 C 138.59375 138.636719 137.257812 136.421875 136.128906 134.050781 L 139.726562 155.933594 C 143.902344 160.625 149.210938 165.902344 155.75 171.167969 C 160.101562 174.675781 162.023438 176.21875 162.511719 176.613281 C 161.742188 175.992188 157.746094 172.773438 155.753906 171.171875 C 174.125 185.964844 182.332031 201.132812 185.851562 210.085938 Z M 162.582031 176.667969 C 162.664062 176.738281 162.660156 176.730469 162.582031 176.667969 Z M 162.582031 176.667969 " fill-opacity="1" fill-rule="nonzero"/></g><path fill="#ff997a" d="M 155.75 171.167969 C 155.753906 171.171875 155.753906 171.171875 155.757812 171.171875 C 154.484375 170.152344 154.03125 169.785156 155.75 171.167969 Z M 155.75 171.167969 " fill-opacity="1" fill-rule="nonzero"/><path fill="#ff997a" d="M 139.132812 158.9375 C 139.144531 158.953125 139.15625 158.960938 139.167969 158.972656 C 139.160156 158.96875 139.15625 158.960938 139.148438 158.953125 C 139.144531 158.949219 139.140625 158.941406 139.132812 158.9375 Z M 139.132812 158.9375 " fill-opacity="1" fill-rule="nonzero"/><path fill="#ff997a" d="M 139.148438 158.953125 C 139.34375 159.167969 139.265625 159.082031 139.167969 158.972656 C 142.101562 162.203125 145.152344 165.246094 148.300781 168.109375 C 151.882812 171.367188 155.65625 174.234375 159.261719 177.449219 C 165.097656 182.667969 170.585938 188.617188 175.339844 195.480469 C 178.601562 200.195312 181.542969 205.355469 183.816406 211.007812 C 174.742188 195.671875 162.355469 183.890625 149.261719 175.046875 C 142.734375 170.636719 136.304688 166.167969 130.175781 160.871094 L 125.9375 141.257812 C 126.90625 143.039062 128.007812 144.703125 129.121094 146.328125 C 132.210938 150.855469 135.59375 155.03125 139.136719 158.941406 C 139.027344 158.820312 138.925781 158.710938 139.148438 158.953125 Z M 139.148438 158.953125 " fill-opacity="1" fill-rule="nonzero"/><path fill="#ff997a" d="M 140.070312 171.933594 C 143.925781 174.707031 147.914062 177.144531 151.757812 179.941406 C 158.996094 185.210938 165.878906 191.414062 172.027344 198.675781 C 172.410156 199.128906 172.789062 199.585938 173.167969 200.046875 C 166.347656 193.816406 158.90625 188.726562 151.117188 184.839844 C 143.207031 180.890625 134.839844 178.816406 126.988281 174.652344 C 124.265625 173.207031 121.597656 171.597656 119 169.816406 L 114.445312 148.734375 C 119.09375 154.402344 124.398438 159.273438 129.710938 163.804688 C 133.085938 166.683594 136.542969 169.390625 140.070312 171.933594 Z M 140.070312 171.933594 " fill-opacity="1" fill-rule="nonzero"/><path fill="#ff997a" d="M 118.511719 172.636719 C 119.503906 173.304688 118.769531 172.8125 118.519531 172.640625 C 121.96875 174.964844 125.539062 176.992188 129.191406 178.742188 C 133.214844 180.667969 137.339844 182.042969 141.460938 183.566406 C 149.597656 186.574219 157.433594 190.878906 164.734375 196.382812 C 169.199219 199.746094 173.472656 203.554688 177.46875 207.804688 C 169.597656 203.03125 161.3125 199.363281 153.023438 195.984375 C 144.640625 192.566406 136.132812 189.800781 127.667969 186.738281 C 121.363281 184.460938 115.101562 181.890625 109.042969 178.6875 L 105.300781 161.351562 C 109.171875 165.9375 113.882812 169.515625 118.503906 172.628906 C 118.433594 172.582031 118.410156 172.566406 118.511719 172.636719 Z M 118.511719 172.636719 " fill-opacity="1" fill-rule="nonzero"/><path fill="#ff997a" d="M 118.5 172.628906 C 118.507812 172.632812 118.511719 172.636719 118.519531 172.640625 C 118.515625 172.640625 118.515625 172.636719 118.511719 172.636719 C 118.507812 172.636719 118.507812 172.632812 118.5 172.628906 Z M 118.5 172.628906 " fill-opacity="1" fill-rule="nonzero"/><g clip-path="url(#07136daae5)"><g clip-path="url(#326040e712)"><g clip-path="url(#648b2fb65b)"><g clip-path="url(#1b52fe4d37)"><path fill="#ff997a" d="M 229.894531 102.957031 L 244.832031 181.242188 L 186.117188 192.449219 L 171.175781 114.160156 Z M 229.894531 102.957031 " fill-opacity="1" fill-rule="nonzero"/></g></g></g></g><g clip-path="url(#10e5e16032)"><g clip-path="url(#4c3a487a6a)"><g clip-path="url(#f672b30fb4)"><g clip-path="url(#a9270a4528)"><path fill="#ff997a" d="M 223.316406 68.980469 L 242.800781 171.070312 L 173.894531 184.21875 L 154.410156 82.128906 Z M 223.316406 68.980469 " fill-opacity="1" fill-rule="nonzero"/></g></g></g></g><g clip-path="url(#c8cdcc4947)"><g clip-path="url(#0ff1443748)"><g clip-path="url(#3e8df167ca)"><path fill="#9ad0c3" d="M 169.929688 126.855469 C 170.75 123.765625 172.285156 120.984375 174.21875 118.449219 C 173.503906 117.769531 172.785156 117.101562 172.035156 116.449219 C 167.382812 112.410156 162.113281 109.0625 157.992188 104.480469 C 153.882812 99.894531 151.007812 93.582031 152.539062 87.617188 C 153.089844 96.359375 155.277344 99.597656 166.957031 109.378906 C 169.847656 111.808594 172.804688 114.195312 175.65625 116.683594 C 177.628906 114.402344 179.890625 112.328125 182.195312 110.410156 C 184.21875 108.710938 186.3125 107.074219 188.347656 105.375 C 185.636719 102.839844 182.441406 100.71875 179.230469 98.835938 C 173.238281 95.3125 166.832031 92.242188 161.957031 87.289062 C 157.074219 82.339844 153.972656 74.859375 156.40625 68.351562 C 149.195312 77.070312 143.59375 87.46875 142.304688 98.71875 C 141.015625 109.964844 144.527344 122.078125 153.019531 129.566406 C 157.292969 133.335938 162.566406 135.773438 167.808594 138.027344 C 168.558594 138.347656 169.304688 138.671875 170.046875 138.980469 C 169.082031 134.984375 168.882812 130.8125 169.929688 126.855469 Z M 169.929688 126.855469 " fill-opacity="1" fill-rule="nonzero"/></g></g></g><g fill="#9ad0c3" fill-opacity="1"><g transform="translate(99.226308, 269.462721)"><g><path d="M 35.796875 -29.65625 L 35.796875 0 L 29.859375 0 L 29.859375 -13.703125 C 29.859375 -18.398438 29.890625 -21.78125 29.953125 -23.84375 C 29.148438 -20.40625 28.234375 -17.039062 27.203125 -13.75 L 23.03125 0 L 16.59375 0 L 12.328125 -13.796875 C 11.242188 -17.429688 10.359375 -20.769531 9.671875 -23.8125 C 9.722656 -21.75 9.75 -18.378906 9.75 -13.703125 L 9.75 0 L 3.828125 0 L 3.828125 -29.65625 L 13.1875 -29.65625 L 19.890625 -5.453125 L 26.59375 -29.65625 Z M 35.796875 -29.65625 "/></g></g></g><g fill="#9ad0c3" fill-opacity="1"><g transform="translate(137.772856, 269.462721)"><g><path d="M 24.359375 -22.859375 L 15.171875 0.859375 C 13.960938 3.921875 12.65625 6.046875 11.25 7.234375 C 9.851562 8.429688 7.976562 9.03125 5.625 9.03125 C 4.625 9.03125 3.738281 8.972656 2.96875 8.859375 L 2.96875 4.765625 C 3.363281 4.828125 3.953125 4.859375 4.734375 4.859375 C 6.765625 4.859375 8.195312 3.84375 9.03125 1.8125 L 9.328125 1.078125 L 0 -22.859375 L 6.625 -22.859375 L 12.296875 -4.515625 L 17.875 -22.859375 Z M 24.359375 -22.859375 "/></g></g></g><g fill="#9ad0c3" fill-opacity="1"><g transform="translate(162.052457, 269.462721)"><g/></g></g><g fill="#9ad0c3" fill-opacity="1"><g transform="translate(170.389168, 269.462721)"><g><path d="M 21.140625 -15.984375 C 24.953125 -15.015625 26.859375 -12.640625 26.859375 -8.859375 C 26.859375 -6.304688 26.0625 -4.296875 24.46875 -2.828125 C 22.882812 -1.367188 20.972656 -0.484375 18.734375 -0.171875 C 17.734375 -0.0546875 16.359375 0 14.609375 0 L 3.828125 0 L 3.828125 -29.65625 L 14.4375 -29.65625 C 16.007812 -29.65625 17.285156 -29.597656 18.265625 -29.484375 C 20.640625 -29.191406 22.476562 -28.382812 23.78125 -27.0625 C 25.082031 -25.75 25.734375 -24.09375 25.734375 -22.09375 C 25.734375 -19.082031 24.203125 -17.046875 21.140625 -15.984375 Z M 9.75 -25.015625 L 9.75 -17.484375 L 14.21875 -17.484375 C 14.9375 -17.484375 15.640625 -17.53125 16.328125 -17.625 C 18.472656 -17.96875 19.546875 -19.195312 19.546875 -21.3125 C 19.546875 -23.40625 18.429688 -24.59375 16.203125 -24.875 C 15.515625 -24.96875 14.796875 -25.015625 14.046875 -25.015625 Z M 16.890625 -4.734375 C 17.972656 -4.816406 18.863281 -5.210938 19.5625 -5.921875 C 20.269531 -6.640625 20.625 -7.601562 20.625 -8.8125 C 20.625 -11.300781 19.347656 -12.675781 16.796875 -12.9375 C 16.085938 -13.019531 15.390625 -13.0625 14.703125 -13.0625 L 9.75 -13.0625 L 9.75 -4.6875 L 14.90625 -4.6875 C 15.851562 -4.6875 16.515625 -4.703125 16.890625 -4.734375 Z M 16.890625 -4.734375 "/></g></g></g><g fill="#9ad0c3" fill-opacity="1"><g transform="translate(198.622256, 269.462721)"><g><path d="M 4.296875 -20.125 C 6.390625 -22.351562 9.296875 -23.46875 13.015625 -23.46875 C 16.742188 -23.46875 19.648438 -22.351562 21.734375 -20.125 C 23.828125 -17.90625 24.875 -15.007812 24.875 -11.4375 C 24.875 -7.882812 23.828125 -4.988281 21.734375 -2.75 C 19.648438 -0.507812 16.742188 0.609375 13.015625 0.609375 C 9.296875 0.609375 6.390625 -0.507812 4.296875 -2.75 C 2.203125 -4.988281 1.15625 -7.882812 1.15625 -11.4375 C 1.15625 -15.007812 2.203125 -17.90625 4.296875 -20.125 Z M 8.828125 -5.640625 C 9.847656 -4.253906 11.242188 -3.5625 13.015625 -3.5625 C 14.796875 -3.5625 16.191406 -4.253906 17.203125 -5.640625 C 18.222656 -7.035156 18.734375 -8.960938 18.734375 -11.421875 C 18.734375 -13.890625 18.222656 -15.816406 17.203125 -17.203125 C 16.191406 -18.597656 14.796875 -19.296875 13.015625 -19.296875 C 11.242188 -19.296875 9.847656 -18.597656 8.828125 -17.203125 C 7.816406 -15.816406 7.3125 -13.890625 7.3125 -11.421875 C 7.3125 -8.960938 7.816406 -7.035156 8.828125 -5.640625 Z M 8.828125 -5.640625 "/></g></g></g><g fill="#9ad0c3" fill-opacity="1"><g transform="translate(224.663731, 269.462721)"><g><path d="M 4.296875 -20.125 C 6.390625 -22.351562 9.296875 -23.46875 13.015625 -23.46875 C 16.742188 -23.46875 19.648438 -22.351562 21.734375 -20.125 C 23.828125 -17.90625 24.875 -15.007812 24.875 -11.4375 C 24.875 -7.882812 23.828125 -4.988281 21.734375 -2.75 C 19.648438 -0.507812 16.742188 0.609375 13.015625 0.609375 C 9.296875 0.609375 6.390625 -0.507812 4.296875 -2.75 C 2.203125 -4.988281 1.15625 -7.882812 1.15625 -11.4375 C 1.15625 -15.007812 2.203125 -17.90625 4.296875 -20.125 Z M 8.828125 -5.640625 C 9.847656 -4.253906 11.242188 -3.5625 13.015625 -3.5625 C 14.796875 -3.5625 16.191406 -4.253906 17.203125 -5.640625 C 18.222656 -7.035156 18.734375 -8.960938 18.734375 -11.421875 C 18.734375 -13.890625 18.222656 -15.816406 17.203125 -17.203125 C 16.191406 -18.597656 14.796875 -19.296875 13.015625 -19.296875 C 11.242188 -19.296875 9.847656 -18.597656 8.828125 -17.203125 C 7.816406 -15.816406 7.3125 -13.890625 7.3125 -11.421875 C 7.3125 -8.960938 7.816406 -7.035156 8.828125 -5.640625 Z M 8.828125 -5.640625 "/></g></g></g><g fill="#9ad0c3" fill-opacity="1"><g transform="translate(250.705207, 269.462721)"><g><path d="M 10.53125 -9.03125 L 8.640625 -6.96875 L 8.640625 0 L 2.703125 0 L 2.703125 -31.578125 L 8.640625 -31.578125 L 8.640625 -12.421875 L 17.828125 -22.859375 L 24.96875 -22.859375 L 14.828125 -12.25 L 25.09375 0 L 17.625 0 Z M 10.53125 -9.03125 "/></g></g></g></svg>