<svg xmlns="http://www.w3.org/2000/svg" xmlns:xlink="http://www.w3.org/1999/xlink" width="500" zoomAndPan="magnify" viewBox="0 0 375 374.999991" height="500" preserveAspectRatio="xMidYMid meet" version="1.0"><defs><clipPath id="0d02c153e9"><path d="M 84.589844 220 L 290.089844 220 L 290.089844 273.453125 L 84.589844 273.453125 Z M 84.589844 220 " clip-rule="nonzero"/></clipPath><clipPath id="9be872f85d"><path d="M 136 178.953125 L 186 178.953125 L 186 255 L 136 255 Z M 136 178.953125 " clip-rule="nonzero"/></clipPath><clipPath id="1cbcf58a7b"><path d="M 185 156 L 230 156 L 230 229 L 185 229 Z M 185 156 " clip-rule="nonzero"/></clipPath><clipPath id="6af2dc0afa"><path d="M 133.871094 117.554688 L 218.59375 101.386719 L 240.804688 217.785156 L 156.085938 233.953125 Z M 133.871094 117.554688 " clip-rule="nonzero"/></clipPath><clipPath id="c8ab31c36b"><path d="M 133.871094 117.554688 L 218.59375 101.386719 L 240.804688 217.785156 L 156.085938 233.953125 Z M 133.871094 117.554688 " clip-rule="nonzero"/></clipPath><clipPath id="5f4fd3945e"><path d="M 221.378906 184.789062 C 217.503906 189.558594 212.335938 193.09375 207.167969 196.417969 C 201.996094 199.738281 196.679688 202.960938 192.316406 207.300781 C 192.285156 207.335938 192.25 207.363281 192.214844 207.398438 C 187.023438 212.601562 184.460938 219.871094 185.121094 227.191406 C 185.167969 227.683594 185.21875 228.179688 185.277344 228.683594 C 185.566406 222.542969 188.960938 216.886719 193.320312 212.546875 C 197.679688 208.210938 202.988281 204.992188 208.167969 201.664062 C 213.335938 198.339844 218.507812 194.816406 222.382812 190.035156 C 229.8125 180.890625 231.546875 167.96875 228.609375 156.527344 C 229.882812 166.523438 227.695312 177.015625 221.378906 184.789062 Z M 221.378906 184.789062 " clip-rule="nonzero"/></clipPath><clipPath id="70a08a0f44"><path d="M 172 123 L 224 123 L 224 220 L 172 220 Z M 172 123 " clip-rule="nonzero"/></clipPath><clipPath id="75c8e9fe02"><path d="M 133.871094 117.554688 L 218.59375 101.386719 L 240.804688 217.785156 L 156.085938 233.953125 Z M 133.871094 117.554688 " clip-rule="nonzero"/></clipPath><clipPath id="fffcaaec21"><path d="M 133.871094 117.554688 L 218.59375 101.386719 L 240.804688 217.785156 L 156.085938 233.953125 Z M 133.871094 117.554688 " clip-rule="nonzero"/></clipPath><clipPath id="f250c78b93"><path d="M 222.0625 151.300781 C 218.929688 140.421875 211.683594 131.085938 203.136719 123.671875 C 206.613281 129.6875 204.792969 137.578125 200.792969 143.269531 C 196.800781 148.957031 190.980469 153.039062 185.65625 157.503906 C 180.332031 161.964844 175.191406 167.234375 173.398438 173.945312 C 172.023438 179.09375 172.789062 184.628906 174.59375 189.644531 C 175.777344 192.957031 177.394531 196.082031 179.15625 199.140625 C 180.011719 194.917969 181.464844 190.824219 183.488281 187.011719 C 187.640625 179.195312 193.445312 172.335938 199.507812 165.878906 C 211.09375 153.535156 211.222656 149.347656 210.128906 142.03125 C 212.613281 147.664062 210.828125 154.371094 207.527344 159.5625 C 204.226562 164.757812 199.574219 168.941406 195.65625 173.6875 C 185.28125 186.265625 180.289062 203.136719 182.152344 219.335938 C 182.425781 213.640625 185.5625 208.386719 189.613281 204.371094 C 193.660156 200.34375 198.589844 197.355469 203.382812 194.277344 C 208.183594 191.195312 212.980469 187.921875 216.566406 183.488281 C 223.71875 174.710938 225.183594 162.179688 222.0625 151.300781 Z M 222.0625 151.300781 " clip-rule="nonzero"/></clipPath><clipPath id="5d68656b1c"><path d="M 142 113 L 189 113 L 189 184 L 142 184 Z M 142 113 " clip-rule="nonzero"/></clipPath><clipPath id="87a497ff80"><path d="M 133.871094 117.554688 L 218.59375 101.386719 L 240.804688 217.785156 L 156.085938 233.953125 Z M 133.871094 117.554688 " clip-rule="nonzero"/></clipPath><clipPath id="967b73fb97"><path d="M 133.871094 117.554688 L 218.59375 101.386719 L 240.804688 217.785156 L 156.085938 233.953125 Z M 133.871094 117.554688 " clip-rule="nonzero"/></clipPath></defs><path fill="#ff997a" d="M 221.574219 218.039062 C 221.402344 218.152344 221 218.425781 220.460938 218.789062 C 220.464844 218.785156 220.46875 218.785156 220.46875 218.78125 C 221.074219 218.375 221.421875 218.140625 221.574219 218.039062 Z M 221.574219 218.039062 " fill-opacity="1" fill-rule="nonzero"/><path fill="#ff997a" d="M 237.710938 204.941406 L 243.128906 183.4375 C 242.269531 184.910156 241.3125 186.296875 240.351562 187.65625 C 236.753906 192.738281 232.792969 197.378906 228.652344 201.683594 C 225.589844 204.867188 222.414062 207.867188 219.15625 210.683594 C 215.464844 213.875 211.585938 216.65625 207.96875 219.984375 C 198.625 228.582031 190.433594 240.464844 187.214844 255.042969 C 191.472656 246.417969 200.921875 231.992188 220.460938 218.789062 C 218.289062 220.253906 213.886719 223.230469 213.222656 223.679688 C 213.636719 223.398438 215.652344 222.035156 220.46875 218.78125 C 227.425781 214.082031 233.15625 209.269531 237.710938 204.941406 Z M 213.203125 223.695312 C 213.121094 223.746094 213.113281 223.753906 213.203125 223.695312 Z M 213.203125 223.695312 " fill-opacity="1" fill-rule="nonzero"/><path fill="#ff997a" d="M 221.628906 218 C 221.671875 217.96875 221.671875 217.96875 221.628906 218 Z M 221.628906 218 " fill-opacity="1" fill-rule="nonzero"/><path fill="#ff997a" d="M 221.574219 218.039062 C 221.597656 218.023438 221.617188 218.007812 221.628906 218 C 221.617188 218.007812 221.597656 218.023438 221.574219 218.039062 Z M 221.574219 218.039062 " fill-opacity="1" fill-rule="nonzero"/><path fill="#ff997a" d="M 230.550781 221.054688 C 230.027344 221.335938 229.234375 221.757812 228.640625 222.074219 C 228.644531 222.074219 228.644531 222.074219 228.644531 222.074219 C 229.554688 221.589844 230.164062 221.261719 230.550781 221.054688 Z M 230.550781 221.054688 " fill-opacity="1" fill-rule="nonzero"/><path fill="#ff997a" d="M 228.644531 222.074219 C 227.375 222.757812 227.8125 222.523438 228.644531 222.078125 C 214.4375 229.679688 200.699219 240.394531 189.960938 255.046875 C 189.695312 255.40625 189.433594 255.769531 189.171875 256.136719 C 195.507812 243.539062 204.925781 233.753906 214.6875 226.105469 C 218.507812 223.113281 222.503906 220.570312 226.371094 217.703125 C 229.8125 215.152344 233.171875 212.410156 236.433594 209.46875 C 241.847656 204.585938 247.117188 199.171875 251.671875 192.914062 C 252.011719 192.445312 252.355469 191.96875 252.679688 191.472656 L 246.820312 210.660156 C 241.800781 214.308594 235.683594 218.308594 228.644531 222.074219 Z M 228.644531 222.074219 " fill-opacity="1" fill-rule="nonzero"/><path fill="#ff997a" d="M 231.0625 220.78125 C 231.101562 220.761719 231.101562 220.761719 231.0625 220.78125 Z M 231.0625 220.78125 " fill-opacity="1" fill-rule="nonzero"/><path fill="#ff997a" d="M 230.550781 221.054688 C 230.574219 221.042969 230.59375 221.03125 230.617188 221.019531 C 230.59375 221.03125 230.578125 221.042969 230.550781 221.054688 Z M 230.550781 221.054688 " fill-opacity="1" fill-rule="nonzero"/><path fill="#ff997a" d="M 230.617188 221.019531 C 230.863281 220.886719 231.007812 220.8125 231.0625 220.78125 C 231 220.816406 230.839844 220.902344 230.617188 221.019531 Z M 230.617188 221.019531 " fill-opacity="1" fill-rule="nonzero"/><path fill="#ff997a" d="M 235.992188 228.9375 C 235.917969 228.957031 235.863281 228.972656 235.8125 228.984375 C 235.863281 228.96875 235.921875 228.957031 235.992188 228.9375 C 223.644531 231.9375 211.597656 237.707031 200.695312 246.105469 C 207.367188 239.246094 214.683594 233.5 222.308594 228.730469 C 226.347656 226.195312 230.523438 224.09375 234.609375 221.699219 C 238.359375 219.5 242.054688 217.125 245.679688 214.582031 C 251.828125 210.269531 258 205.554688 263.507812 199.882812 L 257.203125 220.511719 C 251.691406 223.644531 244.558594 226.859375 235.992188 228.9375 Z M 235.992188 228.9375 " fill-opacity="1" fill-rule="nonzero"/><path fill="#ff997a" d="M 239.316406 228.128906 C 239.335938 228.125 239.335938 228.125 239.316406 228.128906 Z M 239.316406 228.128906 " fill-opacity="1" fill-rule="nonzero"/><path fill="#ff997a" d="M 236.019531 228.933594 C 236.035156 228.929688 236.050781 228.925781 236.0625 228.921875 C 236.050781 228.925781 236.035156 228.925781 236.019531 228.933594 Z M 236.019531 228.933594 " fill-opacity="1" fill-rule="nonzero"/><path fill="#ff997a" d="M 237.691406 228.527344 C 237.769531 228.507812 237.851562 228.488281 237.925781 228.46875 C 237.855469 228.484375 237.769531 228.507812 237.691406 228.527344 Z M 237.691406 228.527344 " fill-opacity="1" fill-rule="nonzero"/><path fill="#ff997a" d="M 237.925781 228.46875 C 238.113281 228.421875 238.273438 228.382812 238.421875 228.347656 C 238.265625 228.386719 238.097656 228.425781 237.925781 228.46875 Z M 237.925781 228.46875 " fill-opacity="1" fill-rule="nonzero"/><path fill="#ff997a" d="M 236.019531 228.933594 C 236.011719 228.933594 236.003906 228.9375 235.992188 228.9375 C 236.003906 228.9375 236.011719 228.933594 236.019531 228.933594 Z M 236.019531 228.933594 " fill-opacity="1" fill-rule="nonzero"/><path fill="#ff997a" d="M 238.417969 228.347656 C 238.882812 228.238281 239.238281 228.148438 239.316406 228.128906 C 239.261719 228.144531 238.992188 228.210938 238.417969 228.347656 Z M 238.417969 228.347656 " fill-opacity="1" fill-rule="nonzero"/><path fill="#ff997a" d="M 236.0625 228.921875 C 236.152344 228.898438 236.230469 228.882812 236.316406 228.859375 C 236.222656 228.882812 236.140625 228.902344 236.0625 228.921875 Z M 236.0625 228.921875 " fill-opacity="1" fill-rule="nonzero"/><path fill="#ff997a" d="M 236.316406 228.859375 C 236.375 228.847656 236.433594 228.832031 236.496094 228.816406 C 236.4375 228.832031 236.375 228.84375 236.316406 228.859375 Z M 236.316406 228.859375 " fill-opacity="1" fill-rule="nonzero"/><path fill="#ff997a" d="M 236.496094 228.816406 C 236.960938 228.703125 237.355469 228.605469 237.691406 228.523438 C 237.277344 228.625 236.851562 228.730469 236.496094 228.816406 Z M 236.496094 228.816406 " fill-opacity="1" fill-rule="nonzero"/><path fill="#ff997a" d="M 246.667969 236.84375 C 246.710938 236.832031 246.714844 236.828125 246.667969 236.84375 Z M 246.667969 236.84375 " fill-opacity="1" fill-rule="nonzero"/><path fill="#ff997a" d="M 241.667969 238.050781 C 233.910156 239.984375 226.175781 242.085938 218.5 244.574219 C 210.835938 247.054688 203.167969 249.792969 195.761719 253.476562 C 202.625 247.300781 210.082031 242.269531 217.832031 238.421875 C 221.835938 236.433594 225.917969 234.761719 230.0625 233.417969 C 234.347656 232.027344 238.703125 231.152344 242.984375 229.730469 C 249.496094 227.5625 255.878906 224.574219 261.933594 220.671875 C 265.246094 218.535156 268.609375 216.179688 271.5625 213.222656 L 266.382812 230.179688 C 261.019531 232.46875 253.023438 235.304688 241.667969 238.050781 Z M 241.667969 238.050781 " fill-opacity="1" fill-rule="nonzero"/><path fill="#ff997a" d="M 241.703125 238.042969 C 245.097656 237.222656 246.4375 236.898438 246.667969 236.84375 C 246.226562 236.945312 242.125 237.941406 241.703125 238.042969 Z M 241.703125 238.042969 " fill-opacity="1" fill-rule="nonzero"/><path fill="#ff997a" d="M 241.667969 238.050781 C 241.667969 238.050781 241.679688 238.046875 241.703125 238.042969 C 241.6875 238.046875 241.679688 238.046875 241.667969 238.050781 Z M 241.667969 238.050781 " fill-opacity="1" fill-rule="nonzero"/><g clip-path="url(#0d02c153e9)"><path fill="#9ad0c3" d="M 247.761719 252.941406 L 242.875 254.839844 L 194.511719 273.65625 L 185.867188 273.296875 L 185.671875 273.289062 L 177.027344 272.925781 L 130.40625 250.128906 L 125.695312 247.824219 L 90.792969 230.757812 L 84.605469 227.734375 L 89.035156 225.492188 L 99.117188 220.382812 C 100.363281 221.488281 101.742188 222.367188 103.09375 223.21875 C 106.222656 225.191406 109.464844 226.867188 112.734375 228.410156 C 119.789062 231.738281 127.019531 234.320312 134.285156 236.78125 C 142.800781 239.667969 151.253906 242.871094 159.574219 246.5625 C 163.675781 248.382812 167.746094 250.320312 171.75 252.476562 C 175.503906 254.5 179.257812 256.671875 182.722656 259.445312 C 183.953125 260.429688 185.164062 261.496094 186.210938 262.796875 C 189.398438 259.445312 193.519531 257.472656 197.296875 255.640625 C 201.367188 253.664062 205.523438 251.972656 209.695312 250.429688 C 218.167969 247.296875 226.742188 244.699219 235.359375 242.433594 C 243.320312 240.339844 251.296875 238.519531 259.164062 235.804688 C 264.863281 233.835938 270.75 231.714844 276.039062 228.175781 C 276.207031 228.0625 276.378906 227.945312 276.542969 227.820312 L 286.164062 233.75 L 290.390625 236.359375 L 283.972656 238.855469 Z M 247.761719 252.941406 " fill-opacity="1" fill-rule="nonzero"/></g><g clip-path="url(#9be872f85d)"><path fill="#ff997a" d="M 185.851562 254.988281 C 185.25 250.484375 184.144531 246.121094 182.660156 242.011719 C 179.988281 234.589844 176.101562 228.027344 171.601562 222.386719 C 168.59375 218.617188 165.292969 215.398438 161.921875 212.21875 C 158.570312 209.058594 155.328125 205.699219 152.222656 202.136719 C 147.816406 197.089844 143.65625 191.636719 139.945312 185.695312 C 138.59375 183.539062 137.257812 181.324219 136.128906 178.953125 L 139.726562 200.835938 C 143.902344 205.527344 149.210938 210.808594 155.75 216.070312 C 160.101562 219.578125 162.023438 221.125 162.511719 221.515625 C 161.742188 220.894531 157.746094 217.675781 155.753906 216.074219 C 174.125 230.867188 182.332031 246.035156 185.851562 254.988281 Z M 162.582031 221.574219 C 162.664062 221.640625 162.660156 221.632812 162.582031 221.574219 Z M 162.582031 221.574219 " fill-opacity="1" fill-rule="nonzero"/></g><path fill="#ff997a" d="M 155.75 216.070312 C 155.753906 216.074219 155.753906 216.074219 155.757812 216.074219 C 154.484375 215.054688 154.03125 214.6875 155.75 216.070312 Z M 155.75 216.070312 " fill-opacity="1" fill-rule="nonzero"/><path fill="#ff997a" d="M 139.132812 203.839844 C 139.144531 203.855469 139.15625 203.863281 139.167969 203.875 C 139.160156 203.871094 139.15625 203.863281 139.148438 203.855469 C 139.144531 203.851562 139.140625 203.84375 139.132812 203.839844 Z M 139.132812 203.839844 " fill-opacity="1" fill-rule="nonzero"/><path fill="#ff997a" d="M 139.148438 203.855469 C 139.34375 204.070312 139.265625 203.984375 139.167969 203.875 C 142.101562 207.105469 145.152344 210.148438 148.300781 213.011719 C 151.882812 216.269531 155.65625 219.136719 159.261719 222.355469 C 165.097656 227.570312 170.585938 233.519531 175.339844 240.386719 C 178.601562 245.097656 181.542969 250.257812 183.816406 255.910156 C 174.742188 240.574219 162.355469 228.792969 149.261719 219.949219 C 142.734375 215.539062 136.304688 211.070312 130.175781 205.773438 L 125.9375 186.160156 C 126.90625 187.941406 128.007812 189.605469 129.121094 191.234375 C 132.210938 195.757812 135.59375 199.933594 139.136719 203.84375 C 139.027344 203.722656 138.925781 203.613281 139.148438 203.855469 Z M 139.148438 203.855469 " fill-opacity="1" fill-rule="nonzero"/><path fill="#ff997a" d="M 140.070312 216.835938 C 143.925781 219.613281 147.914062 222.050781 151.757812 224.84375 C 158.996094 230.113281 165.878906 236.316406 172.027344 243.582031 C 172.410156 244.035156 172.789062 244.492188 173.167969 244.953125 C 166.347656 238.722656 158.90625 233.628906 151.117188 229.742188 C 143.207031 225.792969 134.839844 223.71875 126.988281 219.554688 C 124.265625 218.109375 121.597656 216.5 119 214.71875 L 114.445312 193.636719 C 119.09375 199.304688 124.398438 204.175781 129.710938 208.707031 C 133.085938 211.585938 136.542969 214.296875 140.070312 216.835938 Z M 140.070312 216.835938 " fill-opacity="1" fill-rule="nonzero"/><path fill="#ff997a" d="M 118.511719 217.539062 C 119.503906 218.207031 118.769531 217.714844 118.519531 217.542969 C 121.96875 219.867188 125.539062 221.898438 129.191406 223.644531 C 133.214844 225.570312 137.339844 226.945312 141.460938 228.46875 C 149.597656 231.476562 157.433594 235.78125 164.734375 241.285156 C 169.199219 244.648438 173.472656 248.457031 177.46875 252.707031 C 169.597656 247.933594 161.3125 244.265625 153.023438 240.886719 C 144.640625 237.46875 136.132812 234.703125 127.667969 231.640625 C 121.363281 229.363281 115.101562 226.792969 109.042969 223.589844 L 105.300781 206.257812 C 109.171875 210.839844 113.882812 214.417969 118.503906 217.53125 C 118.433594 217.484375 118.410156 217.472656 118.511719 217.539062 Z M 118.511719 217.539062 " fill-opacity="1" fill-rule="nonzero"/><path fill="#ff997a" d="M 118.5 217.53125 C 118.507812 217.535156 118.511719 217.539062 118.519531 217.542969 C 118.515625 217.542969 118.515625 217.539062 118.511719 217.539062 C 118.507812 217.539062 118.507812 217.535156 118.5 217.53125 Z M 118.5 217.53125 " fill-opacity="1" fill-rule="nonzero"/><g clip-path="url(#1cbcf58a7b)"><g clip-path="url(#6af2dc0afa)"><g clip-path="url(#c8ab31c36b)"><g clip-path="url(#5f4fd3945e)"><path fill="#ff997a" d="M 229.894531 147.859375 L 244.832031 226.148438 L 186.117188 237.351562 L 171.175781 159.0625 Z M 229.894531 147.859375 " fill-opacity="1" fill-rule="nonzero"/></g></g></g></g><g clip-path="url(#70a08a0f44)"><g clip-path="url(#75c8e9fe02)"><g clip-path="url(#fffcaaec21)"><g clip-path="url(#f250c78b93)"><path fill="#ff997a" d="M 223.316406 113.882812 L 242.800781 215.972656 L 173.894531 229.121094 L 154.410156 127.03125 Z M 223.316406 113.882812 " fill-opacity="1" fill-rule="nonzero"/></g></g></g></g><g clip-path="url(#5d68656b1c)"><g clip-path="url(#87a497ff80)"><g clip-path="url(#967b73fb97)"><path fill="#9ad0c3" d="M 169.929688 171.757812 C 170.75 168.667969 172.285156 165.886719 174.21875 163.351562 C 173.503906 162.671875 172.785156 162.003906 172.035156 161.351562 C 167.382812 157.3125 162.113281 153.964844 157.992188 149.382812 C 153.882812 144.796875 151.007812 138.484375 152.539062 132.519531 C 153.089844 141.261719 155.277344 144.5 166.957031 154.28125 C 169.847656 156.710938 172.804688 159.097656 175.65625 161.585938 C 177.628906 159.304688 179.890625 157.230469 182.195312 155.3125 C 184.21875 153.617188 186.3125 151.976562 188.347656 150.277344 C 185.636719 147.742188 182.441406 145.621094 179.230469 143.738281 C 173.238281 140.214844 166.832031 137.148438 161.957031 132.195312 C 157.074219 127.242188 153.972656 119.761719 156.40625 113.253906 C 149.195312 121.976562 143.59375 132.371094 142.304688 143.621094 C 141.015625 154.867188 144.527344 166.984375 153.019531 174.46875 C 157.292969 178.238281 162.566406 180.675781 167.808594 182.929688 C 168.558594 183.25 169.304688 183.574219 170.046875 183.882812 C 169.082031 179.886719 168.882812 175.714844 169.929688 171.757812 Z M 169.929688 171.757812 " fill-opacity="1" fill-rule="nonzero"/></g></g></g></svg>